<?xml version="1.0" encoding="iso-8859-1"?>
<!-- Generator: Adobe Illustrator 18.1.1, SVG Export Plug-In . SVG Version: 6.00 Build 0)  -->
<svg version="1.1" id="Capa_1" xmlns="http://www.w3.org/2000/svg" xmlns:xlink="http://www.w3.org/1999/xlink" x="0px" y="0px"
	 viewBox="0 0 31.922 31.922" style="enable-background:new 0 0 31.922 31.922;" xml:space="preserve">
<g>
	<g id="paperclip">
		<path style="fill:#030104;" d="M12.964,31.922c-2.939,0-5.701-1.148-7.777-3.227c-2.078-2.078-3.223-4.836-3.223-7.777
			c0.002-2.938,1.145-5.699,3.223-7.775L16.323,2.248C19.315-0.746,24.6-0.758,27.62,2.264c3.117,3.121,3.117,8.195,0,11.312
			L17.6,23.351c-1.93,1.93-5.102,1.934-7.051-0.016c-1.949-1.953-1.949-5.123,0-7.072l3.879-3.879l2.828,2.828l-3.879,3.879
			c-0.256,0.256-0.293,0.553-0.293,0.707s0.037,0.451,0.293,0.709c0.512,0.508,0.902,0.508,1.414,0l10.016-9.777
			c1.543-1.541,1.543-4.078-0.016-5.639c-1.512-1.512-4.145-1.512-5.656,0L7.999,15.986c-1.306,1.307-2.035,3.063-2.035,4.932
			c0,1.871,0.729,3.629,2.051,4.949c2.645,2.648,7.254,2.648,9.898,0l5-5l2.828,2.828l-5,5
			C18.663,30.773,15.902,31.922,12.964,31.922z"/>
	</g>
</g>
<g>
</g>
<g>
</g>
<g>
</g>
<g>
</g>
<g>
</g>
<g>
</g>
<g>
</g>
<g>
</g>
<g>
</g>
<g>
</g>
<g>
</g>
<g>
</g>
<g>
</g>
<g>
</g>
<g>
</g>
</svg>
