<svg height='300px' width='300px'  fill="#5dbf6f" xmlns="http://www.w3.org/2000/svg" xmlns:xlink="http://www.w3.org/1999/xlink" viewBox="0 0 26 26" version="1.1" x="0px" y="0px"><title>Icons / Advanced-filters-icon-button</title><desc>Created with Sketch.</desc><g stroke="none" stroke-width="1" fill="none" fill-rule="evenodd"><g transform="translate(-86.000000, -96.000000)" fill="#5dbf6f"><g transform="translate(86.000000, 96.000000)"><path d="M20.5446429,23.8051948 C20.5446429,24.4322761 20.3353735,24.9645167 19.9197774,25.3781243 C19.5041813,25.7917319 18.9693818,26 18.3392857,26 C17.7091897,26 17.1743901,25.7917319 16.758794,25.3781243 C16.3431979,24.9645167 16.1339286,24.4322761 16.1339286,23.8051948 L16.1339286,18.4025974 C16.1339286,17.7755162 16.3431979,17.2432755 16.758794,16.8296679 C17.1743901,16.4160603 17.7091897,16.2077922 18.3392857,16.2077922 C18.9693818,16.2077922 19.5041813,16.4160603 19.9197774,16.8296679 C20.3353735,17.2432755 20.5446429,17.7755162 20.5446429,18.4025974 L20.5446429,23.8051948 Z M9.84285714,15.7012987 C9.84285714,16.3283799 9.63358777,16.8606206 9.21799167,17.2742282 C8.80239558,17.6878358 8.26759606,17.8961039 7.6375,17.8961039 C7.00740394,17.8961039 6.47260442,17.6878358 6.05700833,17.2742282 C5.64141223,16.8606206 5.43214286,16.3283799 5.43214286,15.7012987 L5.43214286,10.2987013 C5.43214286,9.67162005 5.64141223,9.13937938 6.05700833,8.72577179 C6.47260442,8.31216419 7.00740394,8.1038961 7.6375,8.1038961 C8.26759606,8.1038961 8.80239558,8.31216419 9.21799167,8.72577179 C9.63358777,9.13937938 9.84285714,9.67162005 9.84285714,10.2987013 L9.84285714,15.7012987 Z M20.5446429,7.5974026 C20.5446429,8.22448384 20.3353735,8.75672451 19.9197774,9.17033211 C19.5041813,9.5839397 18.9693818,9.79220779 18.3392857,9.79220779 C17.7091897,9.79220779 17.1743901,9.5839397 16.758794,9.17033211 C16.3431979,8.75672451 16.1339286,8.22448384 16.1339286,7.5974026 L16.1339286,2.19480519 C16.1339286,1.56772395 16.3431979,1.03548328 16.758794,0.621875684 C17.1743901,0.208268089 17.7091897,0 18.3392857,0 C18.9693818,0 19.5041813,0.208268089 19.9197774,0.621875684 C20.3353735,1.03548328 20.5446429,1.56772395 20.5446429,2.19480519 L20.5446429,7.5974026 Z M0.5,11.5 L4.625,11.5 C4.76307119,11.5 4.875,11.6119288 4.875,11.75 L4.875,14.25 C4.875,14.3880712 4.76307119,14.5 4.625,14.5 L0.5,14.5 C0.223857625,14.5 0,14.2761424 0,14 L0,12 C0,11.7238576 0.223857625,11.5 0.5,11.5 Z M21.375,3.5 L25.5,3.5 C25.7761424,3.5 26,3.72385763 26,4 L26,6 C26,6.27614237 25.7761424,6.5 25.5,6.5 L21.375,6.5 C21.2369288,6.5 21.125,6.38807119 21.125,6.25 L21.125,3.75 C21.125,3.61192881 21.2369288,3.5 21.375,3.5 Z M10.6964286,11.5 L25.5,11.5 C25.7761424,11.5 26,11.7238576 26,12 L26,14 C26,14.2761424 25.7761424,14.5 25.5,14.5 L10.6964286,14.5 C10.5583574,14.5 10.4464286,14.3880712 10.4464286,14.25 L10.4464286,11.75 C10.4464286,11.6119288 10.5583574,11.5 10.6964286,11.5 Z M0.5,3.5 L15.3035714,3.5 C15.4416426,3.5 15.5535714,3.61192881 15.5535714,3.75 L15.5535714,6.25 C15.5535714,6.38807119 15.4416426,6.5 15.3035714,6.5 L0.5,6.5 C0.223857625,6.5 0,6.27614237 0,6 L0,4 C0,3.72385763 0.223857625,3.5 0.5,3.5 Z M21.375,19.75 L25.5,19.75 C25.7761424,19.75 26,19.9738576 26,20.25 L26,22.25 C26,22.5261424 25.7761424,22.75 25.5,22.75 L21.375,22.75 C21.2369288,22.75 21.125,22.6380712 21.125,22.5 L21.125,20 C21.125,19.8619288 21.2369288,19.75 21.375,19.75 Z M0.5,19.75 L15.3035714,19.75 C15.4416426,19.75 15.5535714,19.8619288 15.5535714,20 L15.5535714,22.5 C15.5535714,22.6380712 15.4416426,22.75 15.3035714,22.75 L0.5,22.75 C0.223857625,22.75 0,22.5261424 0,22.25 L0,20.25 C0,19.9738576 0.223857625,19.75 0.5,19.75 Z"></path></g></g></g></svg>