<?xml version="1.0" encoding="iso-8859-1"?>
<!-- Generator: Adobe Illustrator 19.0.0, SVG Export Plug-In . SVG Version: 6.00 Build 0)  -->
<svg version="1.1" id="Capa_1" xmlns="http://www.w3.org/2000/svg" xmlns:xlink="http://www.w3.org/1999/xlink" x="0px" y="0px"
	 viewBox="0 0 512 512" style="enable-background:new 0 0 512 512;" xml:space="preserve">
<path style="fill:#2196F3;" d="M373.333,0H138.667C97.429,0,64,33.429,64,74.667v426.667c0.001,4.316,2.603,8.207,6.592,9.856
	c1.291,0.538,2.676,0.813,4.075,0.811c2.831,0.005,5.548-1.115,7.552-3.115l120.448-120.619
	c47.147,46.528,112.107,110.933,119.083,118.869c3.261,4.906,9.882,6.24,14.788,2.979c1.775-1.18,3.155-2.864,3.964-4.835
	c0.687-1.195,0.978-2.576,0.832-3.947v-448c0-17.673,14.327-32,32-32c5.891,0,10.667-4.776,10.667-10.667S379.224,0,373.333,0z"/>
<path style="fill:#1976D2;" d="M384,0L384,0c23.564,0,42.667,19.103,42.667,42.667v32c0,5.891-4.776,10.667-10.667,10.667h-74.667
	l0,0V42.667C341.333,19.103,360.436,0,384,0z"/>
<circle style="fill:#FFC107;" cx="330.667" cy="245.333" r="117.333"/>
<path style="fill:#FAFAFA;" d="M309.333,298.667c-2.831,0.005-5.548-1.115-7.552-3.115l-42.667-42.667
	c-4.092-4.237-3.975-10.99,0.262-15.083c4.134-3.992,10.687-3.992,14.82,0l35.136,35.115l77.781-77.781
	c4.093-4.237,10.845-4.355,15.083-0.262c4.237,4.093,4.354,10.845,0.262,15.083c-0.086,0.089-0.173,0.176-0.262,0.262
	l-85.333,85.333C314.865,297.546,312.157,298.666,309.333,298.667z"/>
<g>
</g>
<g>
</g>
<g>
</g>
<g>
</g>
<g>
</g>
<g>
</g>
<g>
</g>
<g>
</g>
<g>
</g>
<g>
</g>
<g>
</g>
<g>
</g>
<g>
</g>
<g>
</g>
<g>
</g>
</svg>
