<svg id="Capa_1" enable-background="new 0 0 512 512" height="512" viewBox="0 0 512 512" width="512" xmlns="http://www.w3.org/2000/svg"><g><path d="m262.577 3.208-6.577-3.208-6.577 3.208c-3.514 1.708-59.877 30.958-96.755 87.792l31.144 30h72.188 55.313l48.019-30c-36.878-56.834-93.241-86.084-96.755-87.792z" fill="#ff6c6c"/><path d="m359.332 91c-36.877-56.834-93.241-86.084-96.755-87.792l-6.577-3.208v121h55.313z" fill="#e63950"/><path d="m351.405 351.581-35.405 99.419c24.814 0 45 21.186 45 46v15h34.219l27.891-112.621z" fill="#e63950"/><path d="m159.057 352.606-70.166 46.772 27.89 112.622h34.219v-15c0-24.814 20.186-46 45-46z" fill="#ff6c6c"/><path d="m359.332 91h-103.332-103.332c-18.16 27.988-31.668 62.794-31.668 105 0 83.58 37.484 179.165 75 255h60 60c37.511-75.824 75-171.411 75-255 0-42.206-13.508-77.012-31.668-105z" fill="#f0f7ff"/><path d="m391 196c0-42.206-13.508-77.012-31.668-105h-103.332v360h60c37.511-75.824 75-171.411 75-255z" fill="#dfe7f4"/><path d="m256 346h-15v166h15 15v-166z" fill="#474f54"/><path d="m256 346h15v166h-15z" fill="#32393f"/><circle cx="256" cy="226" fill="#474f54" r="75"/><path d="m331 226c0-41.353-33.647-75-75-75v150c41.353 0 75-33.647 75-75z" fill="#32393f"/><circle cx="256" cy="226" fill="#73e6d3" r="45"/><path d="m301 226c0 24.901-20.099 45-45 45v-90c24.901 0 45 20.099 45 45z" fill="#52ccb8"/></g></svg>