<?xml version="1.0" encoding="iso-8859-1"?>
<!-- Generator: Adobe Illustrator 19.0.0, SVG Export Plug-In . SVG Version: 6.00 Build 0)  -->
<svg version="1.1" id="Layer_1" xmlns="http://www.w3.org/2000/svg" xmlns:xlink="http://www.w3.org/1999/xlink" x="0px" y="0px"
	 viewBox="0 0 512 512" style="enable-background:new 0 0 512 512;" xml:space="preserve">
<rect x="229.366" y="369.632" style="fill:#576063;" width="53.259" height="80.091"/>
<g>
	<path style="fill:#6F7A80;" d="M470.204,32.756H41.796C18.713,32.756,0,51.445,0,74.494v281.741
		c0,23.054,18.713,41.738,41.796,41.738h428.408c23.084,0,41.796-18.686,41.796-41.738V74.494
		C512,51.444,493.288,32.756,470.204,32.756z"/>
	<path style="fill:#6F7A80;" d="M349.626,435.324H162.374c-12.041,0-21.804,9.831-21.804,21.961c0,12.128,9.762,21.96,21.804,21.96
		h187.251c12.042,0,21.804-9.83,21.804-21.96C371.43,445.155,361.667,435.324,349.626,435.324z"/>
</g>
<path style="fill:#E2E9E3;" d="M47.34,345.987c-5.301,0-9.613-4.267-9.613-9.514V80.29c0-5.408,4.312-9.808,9.613-9.808h417.32
	c5.302,0,9.614,4.4,9.614,9.808v256.183c0,5.247-4.312,9.514-9.614,9.514H47.34z"/>
<path style="fill:#F2D1A5;" d="M464.659,70.482h-125.66v275.505H464.66c5.302,0,9.614-4.267,9.614-9.514V80.29
	C474.274,74.882,469.962,70.482,464.659,70.482z"/>
<g>
	<path style="opacity:0.1;fill:#FFFFFF;enable-background:new    ;" d="M470.204,32.756h-30.72
		c23.084,0,41.796,18.689,41.796,41.738v281.741c0,23.054-18.712,41.738-41.796,41.738h30.72c23.084,0,41.796-18.686,41.796-41.738
		V74.494C512,51.444,493.288,32.756,470.204,32.756z"/>
	<path style="opacity:0.1;fill:#FFFFFF;enable-background:new    ;" d="M349.626,435.324h-33.51
		c12.042,0,21.805,9.831,21.805,21.961c0,12.128-9.762,21.96-21.805,21.96h33.51c12.042,0,21.804-9.83,21.804-21.96
		C371.43,445.155,361.667,435.324,349.626,435.324z"/>
</g>
<path style="opacity:0.1;enable-background:new    ;" d="M185.747,457.284c0-12.128,9.762-21.961,21.803-21.961h-45.176
	c-12.041,0-21.804,9.831-21.804,21.961c0,12.128,9.762,21.96,21.804,21.96h45.176C195.51,479.243,185.747,469.413,185.747,457.284z"
	/>
<g>
	<path style="fill:#46D8BA;" d="M290.301,370.545h-67.524c-15.983,0-29.145,11.97-31.078,27.429h129.68
		C319.446,382.516,306.285,370.545,290.301,370.545z"/>
	<path style="fill:#46D8BA;" d="M464.659,70.482H47.34c-5.301,0-9.613,4.4-9.613,9.808v28.038h436.547V80.29
		C474.274,74.882,469.962,70.482,464.659,70.482z"/>
</g>
<path style="opacity:0.1;enable-background:new    ;" d="M70.602,336.473V80.29c0-5.408,4.312-9.808,9.614-9.808H47.34
	c-5.301,0-9.613,4.4-9.613,9.808v256.183c0,5.247,4.312,9.514,9.613,9.514h32.876C74.915,345.987,70.602,341.72,70.602,336.473z"/>
<path style="opacity:0.2;fill:#FFFFFF;enable-background:new    ;" d="M464.659,70.482h-33.502c5.302,0,9.614,4.4,9.614,9.808
	v256.183c0,5.247-4.312,9.514-9.614,9.514h33.502c5.302,0,9.614-4.267,9.614-9.514V80.29
	C474.274,74.882,469.962,70.482,464.659,70.482z"/>
<path style="fill:#FCB63E;" d="M280.71,143.359H102.718c-11.468,0-20.798,9.33-20.798,20.798v50.855
	c0,11.469,9.33,20.798,20.798,20.798H280.71c11.469,0,20.798-9.33,20.798-20.798v-50.855
	C301.508,152.689,292.179,143.359,280.71,143.359z"/>
<g>
	<path style="fill:#6F7A80;" d="M293.425,266.239H90.004c-4.465,0-8.084-3.62-8.084-8.083c0-4.466,3.62-8.084,8.084-8.084h203.422
		c4.465,0,8.083,3.62,8.083,8.084C301.509,262.62,297.891,266.239,293.425,266.239z"/>
	<path style="fill:#6F7A80;" d="M293.425,301.81H90.004c-4.465,0-8.084-3.62-8.084-8.083c0-4.465,3.62-8.084,8.084-8.084h203.422
		c4.465,0,8.083,3.62,8.083,8.084C301.509,298.19,297.891,301.81,293.425,301.81z"/>
</g>
<g>
	<path style="fill:#46D8BA;" d="M441.625,159.528h-71.683c-4.465,0-8.083-3.62-8.083-8.084c0-4.464,3.618-8.083,8.083-8.083h71.683
		c4.465,0,8.083,3.62,8.083,8.083C449.709,155.909,446.091,159.528,441.625,159.528z"/>
	<path style="fill:#46D8BA;" d="M441.625,195.099h-71.683c-4.465,0-8.083-3.62-8.083-8.083c0-4.465,3.618-8.084,8.083-8.084h71.683
		c4.465,0,8.083,3.62,8.083,8.084C449.709,191.479,446.091,195.099,441.625,195.099z"/>
	<path style="fill:#46D8BA;" d="M441.625,230.669h-71.683c-4.465,0-8.083-3.62-8.083-8.083c0-4.465,3.618-8.084,8.083-8.084h71.683
		c4.465,0,8.083,3.62,8.083,8.084C449.709,227.05,446.091,230.669,441.625,230.669z"/>
	<path style="fill:#46D8BA;" d="M441.625,266.239h-71.683c-4.465,0-8.083-3.62-8.083-8.083c0-4.466,3.618-8.084,8.083-8.084h71.683
		c4.465,0,8.083,3.62,8.083,8.084C449.709,262.62,446.091,266.239,441.625,266.239z"/>
	<path style="fill:#46D8BA;" d="M441.625,301.81h-71.683c-4.465,0-8.083-3.62-8.083-8.083c0-4.465,3.618-8.084,8.083-8.084h71.683
		c4.465,0,8.083,3.62,8.083,8.084C449.709,298.19,446.091,301.81,441.625,301.81z"/>
</g>
<g>
</g>
<g>
</g>
<g>
</g>
<g>
</g>
<g>
</g>
<g>
</g>
<g>
</g>
<g>
</g>
<g>
</g>
<g>
</g>
<g>
</g>
<g>
</g>
<g>
</g>
<g>
</g>
<g>
</g>
</svg>
