<?xml version="1.0" encoding="iso-8859-1"?>
<!-- Generator: Adobe Illustrator 19.0.0, SVG Export Plug-In . SVG Version: 6.00 Build 0)  -->
<svg version="1.1" id="Layer_1" xmlns="http://www.w3.org/2000/svg" xmlns:xlink="http://www.w3.org/1999/xlink" x="0px" y="0px"
	 viewBox="0 0 512 512" style="enable-background:new 0 0 512 512;" xml:space="preserve">
<path style="fill:#48587C;" d="M512,470.204C512,493.288,493.288,512,470.204,512H41.796C18.712,512,0,493.288,0,470.204V41.796
	C0,18.713,18.712,0,41.796,0h428.408C493.288,0,512,18.713,512,41.796V470.204z"/>
<path style="opacity:0.2;fill:#FFFFFF;enable-background:new    ;" d="M470.204,0h-43.655c23.084,0,41.796,18.713,41.796,41.796
	v428.408c0,23.084-18.712,41.796-41.796,41.796h43.655C493.288,512,512,493.288,512,470.204V41.796C512,18.713,493.288,0,470.204,0z
	"/>
<path style="opacity:0.1;enable-background:new    ;" d="M43.655,470.204V41.796C43.655,18.713,62.367,0,85.451,0H41.796
	C18.712,0,0,18.713,0,41.796v428.408C0,493.288,18.712,512,41.796,512h43.655C62.368,512,43.655,493.288,43.655,470.204z"/>
<path style="fill:#46D8BA;" d="M137.97,419.301c0,15.18-12.305,27.486-27.487,27.486l0,0c-15.18,0-27.486-12.306-27.486-27.486
	V92.699c0-15.18,12.305-27.486,27.486-27.486l0,0c15.181,0,27.487,12.306,27.487,27.486V419.301z"/>
<path style="opacity:0.1;enable-background:new    ;" d="M105.095,419.301V92.699c0-11.249,6.76-20.914,16.437-25.168
	c-3.381-1.487-7.118-2.318-11.049-2.318c-15.18,0-27.486,12.306-27.486,27.486v326.602c0,15.18,12.305,27.486,27.486,27.486
	c3.932,0,7.667-0.831,11.049-2.318C111.855,440.214,105.095,430.55,105.095,419.301z"/>
<g>
	<path style="fill:#789DB0;" d="M283.486,419.301c0,15.18-12.305,27.486-27.486,27.486l0,0c-15.181,0-27.487-12.306-27.487-27.486
		V92.699c0-15.18,12.305-27.486,27.487-27.486l0,0c15.18,0,27.486,12.306,27.486,27.486V419.301z"/>
	<path style="fill:#789DB0;" d="M429.002,419.301c0,15.18-12.305,27.486-27.486,27.486l0,0c-15.181,0-27.487-12.306-27.487-27.486
		V92.699c0-15.18,12.305-27.486,27.487-27.486l0,0c15.18,0,27.486,12.306,27.486,27.486V419.301z"/>
</g>
<path style="fill:#FCB63E;" d="M283.486,419.301c0,15.18-12.305,27.486-27.486,27.486l0,0c-15.181,0-27.487-12.306-27.487-27.486
	V92.699c0-15.18,12.305-27.486,27.487-27.486l0,0c15.18,0,27.486,12.306,27.486,27.486V419.301z"/>
<path style="opacity:0.1;enable-background:new    ;" d="M250.61,419.301V92.699c0-11.249,6.76-20.914,16.437-25.168
	c-3.381-1.487-7.117-2.318-11.048-2.318c-15.181,0-27.487,12.306-27.487,27.486v326.602c0,15.18,12.305,27.486,27.487,27.486
	c3.932,0,7.666-0.831,11.048-2.318C257.37,440.214,250.61,430.55,250.61,419.301z"/>
<path style="fill:#DB5D45;" d="M429.002,419.301c0,15.18-12.305,27.486-27.486,27.486l0,0c-15.181,0-27.487-12.306-27.487-27.486
	V92.699c0-15.18,12.305-27.486,27.487-27.486l0,0c15.18,0,27.486,12.306,27.486,27.486V419.301z"/>
<path style="opacity:0.1;enable-background:new    ;" d="M396.126,419.301V92.699c0-11.249,6.759-20.914,16.437-25.168
	c-3.382-1.487-7.118-2.318-11.048-2.318c-15.181,0-27.487,12.306-27.487,27.486v326.602c0,15.18,12.305,27.486,27.487,27.486
	c3.931,0,7.665-0.831,11.048-2.318C402.885,440.214,396.126,430.55,396.126,419.301z"/>
<g>
	<path style="fill:#FFFFFF;" d="M110.483,112.639c-29.765,0-53.894,24.13-53.894,53.895s24.129,53.895,53.894,53.895
		s53.895-24.13,53.895-53.895S140.249,112.639,110.483,112.639z M110.483,188.092c-11.886,0-21.557-9.671-21.557-21.558
		c0-11.887,9.672-21.557,21.557-21.557c11.887,0,21.558,9.671,21.558,21.557S122.37,188.092,110.483,188.092z"/>
	<path style="fill:#FFFFFF;" d="M256,286.18c-29.765,0-53.895,24.13-53.895,53.895c0,29.765,24.13,53.895,53.895,53.895
		s53.895-24.13,53.895-53.895C309.895,310.31,285.765,286.18,256,286.18z M256,361.633c-11.887,0-21.558-9.671-21.558-21.558
		c0-11.888,9.672-21.557,21.558-21.557c11.886,0,21.558,9.671,21.558,21.557C277.558,351.962,267.886,361.633,256,361.633z"/>
	<path style="fill:#FFFFFF;" d="M401.517,177.313c-29.765,0-53.896,24.13-53.896,53.895s24.131,53.895,53.896,53.895
		c29.764,0,53.894-24.13,53.894-53.895C455.41,201.443,431.281,177.313,401.517,177.313z M401.517,252.765
		c-11.887,0-21.558-9.671-21.558-21.558s9.672-21.557,21.558-21.557c11.886,0,21.557,9.671,21.557,21.557
		C423.074,243.094,413.402,252.765,401.517,252.765z"/>
</g>
<g>
</g>
<g>
</g>
<g>
</g>
<g>
</g>
<g>
</g>
<g>
</g>
<g>
</g>
<g>
</g>
<g>
</g>
<g>
</g>
<g>
</g>
<g>
</g>
<g>
</g>
<g>
</g>
<g>
</g>
</svg>
