<svg height="512pt" viewBox="-107 0 512 512" width="512pt" xmlns="http://www.w3.org/2000/svg"><path d="m198.144531 178.378906h-97.292969c-8.363281 0-15.144531 6.78125-15.144531 15.144532v17.664062c0 35.171875 28.617188 63.789062 63.789063 63.789062 35.175781 0 63.789062-28.617187 63.789062-63.789062v-17.664062c0-8.363282-6.777344-15.144532-15.140625-15.144532zm0 0" fill="#45686e"/><path d="m149.496094 0c-55.65625 0-100.933594 45.28125-100.933594 100.9375 0 30.449219 13.746094 59.121094 37.144531 78.21875v24.460938h127.582031v-24.460938c23.398438-19.097656 37.144532-47.769531 37.144532-78.21875 0-55.65625-45.28125-100.9375-100.9375-100.9375zm0 0" fill="#fff04a"/><path d="m255.203125 331c-16.167969-16.167969-36.097656-28.578125-57.640625-35.886719-.003906-.003906-.003906-.003906-.007812-.003906-15.425782-5.242187-31.597657-7.898437-48.058594-7.898437-16.886719 0-33.460938 2.800781-49.265625 8.324218v.003906c-.003907 0-.003907 0-.003907 0-.003906 0-.003906 0-.007812.003907h-.003906c-59.941406 20.914062-100.214844 77.644531-100.214844 141.175781v60.136719c0 8.363281 6.78125 15.144531 15.144531 15.144531h268.703125c8.363282 0 15.144532-6.78125 15.144532-15.144531v-60.136719c0-39.925781-15.550782-77.46875-43.789063-105.71875zm0 0" fill="#f7f7f7"/><path d="m197.5625 295.113281c-.003906-.003906-.003906-.003906-.007812-.003906-15.425782-5.242187-31.597657-7.898437-48.058594-7.898437-.121094 0-.242188.003906-.363282.003906v224.785156h134.714844c8.363282 0 15.144532-6.78125 15.144532-15.144531v-60.136719c0-39.925781-15.550782-77.46875-43.789063-105.71875-16.167969-16.167969-36.097656-28.578125-57.640625-35.886719zm0 0" fill="#e1e1f0"/><path d="m165.617188 346.40625 28.164062-52.515625c-14.28125-4.429687-29.160156-6.679687-44.285156-6.679687-15.472656 0-30.679688 2.359374-45.273438 7.003906l27.59375 52.25-38.945312 165.535156h113.199218zm0 0" fill="#19cffc"/><path d="m165.617188 346.40625 28.164062-52.515625c-14.28125-4.429687-29.160156-6.679687-44.285156-6.679687-.121094 0-.242188.007812-.363282.007812v224.78125h56.9375zm0 0" fill="#4a98f7"/><path d="m198.144531 178.378906h-48.648437v96.597656c35.175781 0 63.789062-28.617187 63.789062-63.789062v-17.664062c0-8.363282-6.777344-15.144532-15.140625-15.144532zm0 0" fill="#2a3b3b"/><path d="m213.285156 203.617188v-24.460938c23.402344-19.09375 37.148438-47.769531 37.148438-78.21875 0-55.65625-45.28125-100.9375-100.9375-100.9375v203.617188zm0 0" fill="#f5cd62"/></svg>