<?xml version="1.0" encoding="iso-8859-1"?>
<!-- Generator: Adobe Illustrator 19.0.0, SVG Export Plug-In . SVG Version: 6.00 Build 0)  -->
<svg version="1.1" id="Capa_1" xmlns="http://www.w3.org/2000/svg" xmlns:xlink="http://www.w3.org/1999/xlink" x="0px" y="0px"
	 viewBox="0 0 480 480" style="enable-background:new 0 0 480 480;" xml:space="preserve">
<path style="fill:#FCD821;" d="M240,15.576c-66.285,0.011-120.011,53.755-120,120.04c0.008,47.711,28.275,90.886,72,109.975
	l8,25.985h80l8-25.985c60.748-26.521,88.496-97.266,61.975-158.015C330.886,43.851,287.711,15.584,240,15.576L240,15.576z"/>
<g>
	<path style="fill:#EC322C;" d="M232,263.576h-16v-84.688l-37.656-37.656l11.312-11.312l40,40c1.501,1.5,2.344,3.534,2.344,5.656
		L232,263.576z"/>
	<path style="fill:#EC322C;" d="M264,263.576h-16v-88c0-2.122,0.843-4.156,2.344-5.656l40-40l11.312,11.312L264,178.889V263.576z"/>
	<path style="fill:#EC322C;" d="M207.962,421.768l-67.273-54.192H60.457C27.068,367.576,0,377.742,0,410.018v69.558h480V411.11
		c0-32.879-27.573-43.534-61.586-43.534h-87.379l-60.132,52.843C253.042,436.115,226.479,436.684,207.962,421.768L207.962,421.768z"
		/>
</g>
<path style="fill:#FCEC8B;" d="M240,31.576c63.58,0.03,116.082,49.684,119.655,113.163c0.229-3.024,0.344-6.079,0.345-9.163
	c0-66.274-53.726-120-120-120s-120,53.726-120,120c0,3.083,0.115,6.137,0.345,9.163C123.918,81.26,176.42,31.607,240,31.576z"/>
<path style="fill:#7585C6;" d="M208,255.576h64c8.837,0,16,7.163,16,16l0,0c0,8.837-7.163,16-16,16h-64c-8.837,0-16-7.163-16-16l0,0
	C192,262.74,199.163,255.576,208,255.576z"/>
<path style="fill:#344496;" d="M208,287.576h64c8.837,0,16,7.163,16,16l0,0c0,8.837-7.163,16-16,16h-64c-8.837,0-16-7.163-16-16l0,0
	C192,294.74,199.163,287.576,208,287.576z"/>
<path style="fill:#E86767;" d="M418.414,367.576h-87.379l-60.132,52.843c-17.861,15.696-44.424,16.265-62.94,1.349l-67.273-54.192
	H60.457C27.067,367.576,0,377.741,0,410.018v16c0-32.276,27.067-42.441,60.457-42.441h80.232l67.273,54.192
	c18.517,14.916,45.08,14.347,62.94-1.349l60.132-52.843h87.379c34.013,0,61.586,10.654,61.586,43.533v-16
	C480,378.23,452.427,367.576,418.414,367.576z"/>
<g>
	<path style="fill:#344496;" d="M232,343.576h16v40h-16V343.576z"/>
	<path style="fill:#344496;" d="M264,343.576h16v24h-16V343.576z"/>
	<path style="fill:#344496;" d="M200,343.576h16v24h-16V343.576z"/>
</g>
<g>
	<path style="fill:#FCD821;" d="M68.421,14.736l7.156-14.313l48,24l-7.156,14.313L68.421,14.736z"/>
	<path style="fill:#FCD821;" d="M354.559,20.486l50.908-16.987l5.063,15.172l-50.908,16.987L354.559,20.486z"/>
	<path style="fill:#FCD821;" d="M32,103.576h56v16H32V103.576z"/>
	<path style="fill:#FCD821;" d="M392,103.576h56v16h-56V103.576z"/>
	<path style="fill:#FCD821;" d="M60.418,232.391l48-24l7.156,14.313l-48,24L60.418,232.391z"/>
	<path style="fill:#FCD821;" d="M364.42,222.765l7.156-14.313l48,24l-7.156,14.313L364.42,222.765z"/>
</g>
<g>
</g>
<g>
</g>
<g>
</g>
<g>
</g>
<g>
</g>
<g>
</g>
<g>
</g>
<g>
</g>
<g>
</g>
<g>
</g>
<g>
</g>
<g>
</g>
<g>
</g>
<g>
</g>
<g>
</g>
</svg>
