<svg height="512pt" viewBox="0 0 512 512.00013" width="512pt" xmlns="http://www.w3.org/2000/svg"><path d="m512 256c0 95.648438-52.464844 179.03125-130.179688 222.976562-1.191406.675782-2.546874 1.023438-3.917968 1.023438h-19.582032c-7.953124 0-14.394531 6.445312-14.394531 14.394531 0 1.261719-.792969 2.398438-1.980469 2.820313-26.863281 9.574218-55.796874 14.785156-85.945312 14.785156-30.171875 0-59.125-5.21875-86.003906-14.804688-1.199219-.429687-1.996094-1.570312-1.996094-2.847656 0-7.921875-6.425781-14.347656-14.347656-14.347656h-19.480469c-1.421875 0-2.820313-.359375-4.058594-1.058594-77.675781-43.957031-130.113281-127.320312-130.113281-222.941406 0-141.078125 115.179688-256.140625 256.257812-256 141.265626.140625 255.742188 114.703125 255.742188 256zm0 0" fill="#015081"/><path d="m381.992188 478.886719c-12.734376 7.210937-26.144532 13.359375-40.113282 18.335937l-50.710937-189.25c-10.457031 5.667969-22.4375 8.886719-35.167969 8.886719s-24.710938-3.21875-35.171875-8.886719l-50.707031 189.25c-13.96875-4.976562-27.382813-11.125-40.113282-18.335937l56.46875-210.75c-2.855468-7.867188-4.414062-16.359375-4.414062-25.214844 0-40.832031 33.101562-73.9375 73.9375-73.9375s73.9375 33.105469 73.9375 73.9375c0 8.855469-1.5625 17.347656-4.417969 25.214844zm0 0" fill="#0995a3"/><path d="m215.796875 326.757812-45.671875 170.464844c-5.800781-2.066406-11.496094-4.332031-17.09375-6.792968l45.121094-168.398438c1.308594-4.871094 6.316406-7.765625 11.1875-6.457031 4.871094 1.304687 7.765625 6.3125 6.457031 11.183593zm122.417969-11.253906c-1.308594-4.875-6.316406-7.765625-11.1875-6.460937-4.871094 1.304687-7.765625 6.3125-6.457032 11.1875l44.820313 167.273437c5.652344-2.675781 11.1875-5.550781 16.601563-8.617187zm-82.214844-111.726562c-21.617188 0-39.144531 17.527344-39.144531 39.144531s17.527343 39.144531 39.144531 39.144531 39.144531-17.527344 39.144531-39.144531-17.527343-39.144531-39.144531-39.144531zm0 0" fill="#2abbc7"/><path d="m205.964844 397.0625-8.332032 31.09375c-1.429687 5.335938-6.914062 8.5-12.246093 7.074219l-39.496094-10.585938c-5.335937-1.425781-8.5-6.910156-7.070313-12.246093l8.332032-31.09375c1.425781-5.335938 6.910156-8.5 12.246094-7.070313l39.496093 10.582031c5.335938 1.429688 8.5 6.914063 7.070313 12.246094zm167.21875 15.335938-8.332032-31.09375c-1.429687-5.335938-6.914062-8.5-12.25-7.070313l-39.496093 10.582031c-5.335938 1.429688-8.5 6.914063-7.070313 12.246094l8.332032 31.09375c1.429687 5.335938 6.914062 8.5 12.246093 7.074219l39.496094-10.585938c5.335937-1.425781 8.5-6.910156 7.074219-12.246093zm0 0" fill="#2ed0e1"/><path d="m205.964844 397.0625-8.332032 31.09375c-1.429687 5.335938-6.914062 8.5-12.246093 7.074219l-23.53125-6.304688c-5.335938-1.429687-8.5-6.914062-7.074219-12.25l8.332031-31.09375c1.429688-5.332031 6.914063-8.5 12.25-7.070312l23.53125 6.304687c5.335938 1.429688 8.5 6.914063 7.070313 12.246094zm167.21875 15.335938-8.332032-31.09375c-1.429687-5.335938-6.914062-8.5-12.25-7.070313l-23.53125 6.304687c-5.335937 1.429688-8.5 6.914063-7.070312 12.246094l8.332031 31.09375c1.429688 5.335938 6.910157 8.5 12.246094 7.070313l23.53125-6.304688c5.335937-1.425781 8.5-6.910156 7.074219-12.246093zm0 0" fill="#84deea"/><path d="m65.679688 263.488281-29.46875 7.894531c-5.332032 1.429688-10.816407-1.734374-12.246094-7.070312l-23.582032-88.015625c-1.429687-5.332031 1.734376-10.816406 7.070313-12.246094l29.46875-7.894531c5.335937-1.429688 10.816406 1.734375 12.246094 7.070312l23.582031 88.015626c1.433594 5.332031-1.734375 10.816406-7.070312 12.246093zm0 0" fill="#0cabb9"/><path d="m60.191406 242.996094-29.46875 7.894531c-5.335937 1.429687-10.820312-1.734375-12.246094-7.070313l-18.09375-67.523437c-1.429687-5.332031 1.734376-10.816406 7.070313-12.246094l29.46875-7.894531c5.335937-1.429688 10.816406 1.734375 12.246094 7.070312l18.09375 67.523438c1.429687 5.332031-1.734375 10.816406-7.070313 12.246094zm0 0" fill="#2abbc7"/><path d="m490.183594 161.246094-410.210938 109.917968c-10.667968 2.855469-21.636718-3.476562-24.496094-14.144531l-24.160156-90.164062c-2.855468-10.667969 3.476563-21.632813 14.144532-24.492188l410.210937-109.917969c10.667969-2.855468 21.632813 3.476563 24.492187 14.144532l24.160157 90.164062c2.859375 10.667969-3.472657 21.632813-14.140625 24.492188zm0 0" fill="#ade8f0"/><path d="m481.816406 130.023438-410.210937 109.914062c-10.667969 2.859375-21.636719-3.472656-24.496094-14.140625l-15.792969-58.941406c-2.859375-10.667969 3.472656-21.632813 14.144532-24.492188l410.210937-109.917969c10.667969-2.855468 21.632813 3.476563 24.492187 14.144532l15.792969 58.9375c2.859375 10.667968-3.472656 21.636718-14.140625 24.496094zm0 0" fill="#d3f1f5"/><path d="m352.429688 198.261719c1.429687 5.335937-1.734376 10.820312-7.070313 12.246093l-166.074219 44.5c-5.335937 1.429688-10.820312-1.734374-12.25-7.070312l-34.5625-128.996094c-1.429687-5.335937 1.738282-10.816406 7.070313-12.246094l166.074219-44.5c5.335937-1.429687 10.820312 1.734376 12.25 7.070313zm159.1875-34.289063-36.65625-136.800781c-1.429688-5.335937-6.910157-8.5-12.246094-7.070313l-39.226563 10.511719c-5.335937 1.429688-8.5 6.910157-7.070312 12.246094l36.65625 136.800781c1.429687 5.335938 6.910156 8.5 12.246093 7.070313l39.226563-10.507813c5.335937-1.429687 8.5-6.914062 7.070313-12.25zm0 0" fill="#0cabb9"/><path d="m501.132812 124.847656-58.542968 15.683594-28.785156-107.429688c-1.429688-5.335937 1.734374-10.820312 7.070312-12.246093l39.226562-10.511719c5.332032-1.429688 10.816407 1.734375 12.246094 7.070312zm-157.097656 42.09375-185.390625 49.675782-26.171875-97.675782c-1.429687-5.335937 1.734375-10.816406 7.070313-12.246094l166.074219-44.5c5.335937-1.429687 10.820312 1.734376 12.246093 7.070313zm-172.878906-16.425781 128.996094-34.566406c5.332031-1.429688 8.5-6.910157 7.070312-12.246094l-.054687-.195313c-1.429688-5.335937-6.910157-8.5-12.246094-7.074218l-128.996094 34.566406c-5.335937 1.429688-8.5 6.914062-7.070312 12.246094l.050781.195312c1.429688 5.335938 6.914062 8.503906 12.25 7.074219zm146.523438-7.78125-.050782-.199219c-1.429687-5.335937-6.914062-8.5-12.25-7.070312l-128.996094 34.566406c-5.332031 1.429688-8.5 6.910156-7.070312 12.246094l.054688.195312c1.429687 5.335938 6.910156 8.5 12.246093 7.074219l128.996094-34.566406c5.335937-1.429688 8.5-6.914063 7.070313-12.246094zm0 0" fill="#2abbc7"/></svg>