<svg id="color" enable-background="new 0 0 24 24" height="512" viewBox="0 0 24 24" width="512" xmlns="http://www.w3.org/2000/svg"><path d="m14.25 0h-11.5c-1.52 0-2.75 1.23-2.75 2.75v15.5c0 1.52 1.23 2.75 2.75 2.75h4.9c.1-.4.28-.78.51-1.13l5.22-8.48c.67-1.15 1.97-1.89 3.37-1.89.08 0 .17 0 .25.01v-6.76c0-1.52-1.23-2.75-2.75-2.75z" fill="#eceff1"/><path d="m8.5 0h-5.75c-1.52 0-2.75 1.23-2.75 2.75v15.5c0 1.52 1.23 2.75 2.75 2.75h5.75v-3.75z" fill="#cdd0d2"/><g fill="#90a4ae"><path d="m13 10h-9c-.552 0-1-.448-1-1s.448-1 1-1h9c.552 0 1 .448 1 1s-.448 1-1 1z"/><path d="m9 14h-5c-.552 0-1-.448-1-1s.448-1 1-1h5c.552 0 1 .448 1 1s-.448 1-1 1z"/><path d="m8 6h-4c-.552 0-1-.448-1-1s.448-1 1-1h4c.552 0 1 .448 1 1s-.448 1-1 1z"/></g><path d="m9 5h-6c0 .553.448 1 1 1h4c.552 0 1-.447 1-1z" fill="#7d8f97"/><path d="m14 9h-11c0 .553.448 1 1 1h9c.552 0 1-.447 1-1z" fill="#7d8f97"/><path d="m10 13h-7c0 .553.448 1 1 1h5c.552 0 1-.447 1-1z" fill="#7d8f97"/><path d="m22.038 24h-10.576c-1.082 0-1.962-.877-1.962-1.955 0-.384.109-.748.315-1.055l5.266-8.557c.335-.569.979-.934 1.669-.934s1.334.364 1.679.951l5.278 8.573c.184.274.293.638.293 1.022 0 1.078-.88 1.955-1.962 1.955zm-.02-1.906.009.014zm.982-.049h.01z" fill="#2196f3"/><path d="m16.75 19.5c-.553 0-1-.447-1-1v-2c0-.553.447-1 1-1s1 .447 1 1v2c0 .553-.447 1-1 1z" fill="#fff"/><path d="m17.75 21c0 .553-.447 1-1 1s-1-.447-1-1 .447-1 1-1 1 .447 1 1z" fill="#fff"/><path d="m16.75 11.5c-.69 0-1.334.364-1.669.934l-5.266 8.556c-.206.307-.315.671-.315 1.055 0 1.078.88 1.955 1.962 1.955h5.288v-2c-.553 0-1-.447-1-1s.447-1 1-1v-.5c-.553 0-1-.447-1-1v-2c0-.553.447-1 1-1z" fill="#1d83d4"/><path d="m16.75 15.5c-.553 0-1 .447-1 1v2c0 .553.447 1 1 1z" fill="#dedede"/><path d="m16.75 20c-.553 0-1 .447-1 1s.447 1 1 1z" fill="#dedede"/></svg>