<svg id="Capa_1" enable-background="new 0 0 497 497" height="512" viewBox="0 0 497 497" width="512" xmlns="http://www.w3.org/2000/svg"><g><circle cx="248.5" cy="248.5" fill="#bdf7f7" r="248.5"/><path d="m248.5 30v437c120.674 0 218.5-97.826 218.5-218.5s-97.826-218.5-218.5-218.5z" fill="#30caf3"/><path d="m437 248.5c0-120.674-84.394-218.5-188.5-218.5-120.674 0-218.5 97.826-218.5 218.5s97.826 218.5 218.5 218.5c104.106 0 188.5-97.826 188.5-218.5z" fill="#3ae8e6"/><path d="m362.654 98.5c-20.632-15.726-44.604-27.291-70.665-33.45h-6.923l118.529 222.442 33.405-38.992z" fill="#3193e0"/><path d="m285.067 65.051-80.054.006c-33.763 7.978-64.021 25.026-88.051 48.443l-50.342 85.357c-4.307 15.818-6.62 32.459-6.62 49.643 0 19.759 3.047 38.804 8.684 56.7l2.558 3.3 23.26 30 23.26 30 190.738 30 95.096-111.007c2.226-12.583 3.404-25.623 3.404-38.993 0-89.137-52.026-163.815-121.933-183.449z" fill="#26abff"/><path d="m173.5 278.5h-75c-15.453 0-28.172 11.685-29.816 26.7.348 1.105.713 2.203 1.081 3.3l13.089 30c5.808 10.666 12.614 20.707 20.296 30l45.586 39.949 24.764-69.949c16.569 0 30-13.431 30-30s-13.431-30-30-30z" fill="#9dcb3b"/><path d="m248.5 60 42.922 7c.202-.644.393-1.293.567-1.95-13.96-3.299-28.52-5.05-43.489-5.05z" fill="#7cf0ee"/><path d="m205.013 65.057c5.101 19.251 22.631 33.443 43.487 33.443 20.147 0 37.189-13.245 42.922-31.5-13.651-4.557-28.046-7-42.922-7-14.97 0-29.526 1.758-43.487 5.057z" fill="#bdf7f7"/><path d="m421.461 173.5-27.611-45c-9.216-11.148-19.682-21.224-31.195-30h-9.155c-2.722 0-5.357.369-7.864 1.048l51.204 163.952 39.547-30c-1.668-21.179-6.839-41.368-14.926-60z" fill="#70ae3e"/><path d="m345.636 99.548c-12.753 3.456-22.136 15.105-22.136 28.952-16.569 0-30 13.432-30 30l15 15c0 16.569 13.431 30 30 30h30v75l38.231-19.125c.172-3.6.269-7.224.269-10.875 0-60.573-24.029-114.466-61.364-148.952z" fill="#9dcb3b"/><path d="m121 233.5h15c0 8.525 7.111 15.388 15.725 14.983 8.068-.38 14.275-7.33 14.275-15.406v-74.577c12.699 0 22.941-10.52 22.485-23.321-.434-12.192-10.825-21.679-23.025-21.679h-48.499c-23.729 23.124-41.38 52.447-50.342 85.357 9.558 20.46 30.308 34.643 54.381 34.643z" fill="#9dcb3b"/><path d="m393.874 128.5h-23.15l23.225 45h27.526c-7.09-16.328-16.412-31.461-27.601-45z" fill="#bdf7f7"/><path d="m248.5 128.5c-8.284 0-15 6.716-15 15s6.716 15 15 15h15c0 8.284 6.716 15 15 15h115.449c-5.963-16.331-13.814-31.46-23.225-45z" fill="#fff"/><path d="m436.388 233.5h-29.898l-157.99 203.5c104.106 0 188.5-84.394 188.5-188.5 0-5.051-.222-10.049-.612-15z" fill="#bdf7f7"/><path d="m407 248.5c0-5.051-.182-10.05-.51-15h-97.99c-8.284 0-15 6.716-15 15h-30c-8.284 0-15 6.716-15 15s6.716 15 15 15 15 6.716 15 15-6.716 15-15 15h-193.744c3.502 10.438 7.895 20.467 13.085 30h135.659c8.284 0 15 6.716 15 15s-6.716 15-15 15h-115.369c34.573 41.837 86.856 68.5 145.369 68.5 85.953 0 155.919-81.369 158.424-182.87.002-.073.005-.145.007-.217.042-1.798.069-3.602.069-5.413z" fill="#fff"/></g></svg>