<svg height='300px' width='300px'  fill="#5dbf6f" xmlns="http://www.w3.org/2000/svg" xmlns:xlink="http://www.w3.org/1999/xlink" viewBox="0 0 42 32" version="1.1" x="0px" y="0px"><title>filter</title><desc>Created with Sketch.</desc><g stroke="none" stroke-width="1" fill="none" fill-rule="evenodd"><g transform="translate(-319.000000, -29.000000)" fill="#5dbf6f"><path d="M330.7227,36.4155 C329.2297,36.4155 328.0147,35.2015 328.0147,33.7075 C328.0147,32.2145 329.2297,30.9995 330.7227,30.9995 C332.2157,30.9995 333.4307,32.2145 333.4307,33.7075 C333.4307,35.2015 332.2157,36.4155 330.7227,36.4155 M358.9997,32.7555 L335.9997,32.7555 C335.7527,32.7555 335.5337,32.8545 335.3587,33.0035 C335.0157,30.7435 333.0777,28.9995 330.7227,28.9995 C328.4457,28.9995 326.5417,30.6255 326.1087,32.7775 C326.0717,32.7735 326.0387,32.7555 325.9997,32.7555 L319.9997,32.7555 C319.4477,32.7555 318.9997,33.2035 318.9997,33.7555 C318.9997,34.3075 319.4477,34.7555 319.9997,34.7555 L325.9997,34.7555 C326.0477,34.7555 326.0877,34.7345 326.1337,34.7285 C326.6017,36.8335 328.4777,38.4155 330.7227,38.4155 C333.0467,38.4155 334.9707,36.7185 335.3497,34.5005 C335.5257,34.6545 335.7487,34.7555 335.9997,34.7555 L359.9997,34.7555 C360.5527,34.7555 360.9997,34.3075 360.9997,33.7555 C360.9997,33.2035 360.5527,32.7555 359.9997,32.7555 L358.9997,32.7555 Z M359.9998,44.7557 L354.3328,44.7557 C354.0838,42.3907 352.1028,40.5357 349.6738,40.5357 C347.2448,40.5357 345.2638,42.3907 345.0158,44.7557 L319.9998,44.7557 C319.4478,44.7557 318.9998,45.2027 318.9998,45.7557 C318.9998,46.3077 319.4478,46.7557 319.9998,46.7557 L345.2378,46.7557 C345.8708,48.6077 347.6098,49.9517 349.6738,49.9517 C351.7378,49.9517 353.4768,48.6077 354.1108,46.7557 L359.9998,46.7557 C360.5518,46.7557 360.9998,46.3077 360.9998,45.7557 C360.9998,45.2027 360.5518,44.7557 359.9998,44.7557 Z M349.6738,47.9517 C348.1808,47.9517 346.9658,46.7367 346.9658,45.2437 C346.9658,43.7507 348.1808,42.5357 349.6738,42.5357 C351.1668,42.5357 352.3818,43.7507 352.3818,45.2437 C352.3818,46.7367 351.1668,47.9517 349.6738,47.9517 Z M360.9997,55.7551 C360.9997,55.2031 360.5527,54.7551 359.9997,54.7551 L335.9997,54.7551 C335.7427,54.7551 335.5127,54.8591 335.3357,55.0191 C334.8997,52.8701 332.9977,51.2471 330.7227,51.2471 C328.5307,51.2471 326.6997,52.7601 326.1777,54.7911 C326.1177,54.7801 326.0627,54.7551 325.9997,54.7551 L319.9997,54.7551 C319.4477,54.7551 318.9997,55.2031 318.9997,55.7551 C318.9997,56.3081 319.4477,56.7551 319.9997,56.7551 L325.9997,56.7551 C326.0337,56.7551 326.0617,56.7401 326.0937,56.7361 C326.4687,58.9601 328.3937,60.6631 330.7227,60.6631 C333.1267,60.6631 335.0917,58.8461 335.3737,56.5171 C335.5457,56.6591 335.7587,56.7551 335.9997,56.7551 L359.9997,56.7551 C360.5527,56.7551 360.9997,56.3081 360.9997,55.7551 Z M330.7227,58.6631 C329.2297,58.6631 328.0147,57.4491 328.0147,55.9551 C328.0147,54.4621 329.2297,53.2471 330.7227,53.2471 C332.2157,53.2471 333.4307,54.4621 333.4307,55.9551 C333.4307,57.4491 332.2157,58.6631 330.7227,58.6631 Z"></path></g></g></svg>