<?xml version="1.0" encoding="iso-8859-1"?>
<!-- Generator: Adobe Illustrator 19.0.0, SVG Export Plug-In . SVG Version: 6.00 Build 0)  -->
<svg version="1.1" id="Capa_1" xmlns="http://www.w3.org/2000/svg" xmlns:xlink="http://www.w3.org/1999/xlink" x="0px" y="0px"
	 viewBox="0 0 512 512" style="enable-background:new 0 0 512 512;" xml:space="preserve">
<g>
	<path style="fill:#4DBBEB;" d="M467,30H225c-24.901,0-45,20.099-45,45s20.099,45,45,45h242c24.901,0,45-20.099,45-45
		S491.901,30,467,30z"/>
	<path style="fill:#4DBBEB;" d="M467,212H225c-24.901,0-45,20.099-45,45c0,24.899,20.099,45,45,45h242c24.901,0,45-20.101,45-45
		C512,232.099,491.901,212,467,212z"/>
	<path style="fill:#4DBBEB;" d="M512,257c0,24.899-20.099,45-45,45H225c-24.901,0-45-20.101-45-45c0-24.901,20.099-45,45-45h242
		C491.901,212,512,232.099,512,257z"/>
	<path style="fill:#4DBBEB;" d="M512,75c0,24.901-20.099,45-45,45H225c-24.901,0-45-20.099-45-45s20.099-45,45-45h242
		C491.901,30,512,50.099,512,75z"/>
	<path style="fill:#4DBBEB;" d="M467,392H225c-24.901,0-45,20.099-45,45c0,24.899,20.099,45,45,45h242c24.901,0,45-20.101,45-45
		C512,412.099,491.901,392,467,392z"/>
	<path style="fill:#4DBBEB;" d="M512,437c0,24.899-20.099,45-45,45H225c-24.901,0-45-20.101-45-45c0-24.901,20.099-45,45-45h242
		C491.901,392,512,412.099,512,437z"/>
</g>
<g>
	<path style="fill:#159CE4;" d="M75,0C33.6,0,0,33.6,0,75s33.6,75,75,75s75-33.6,75-75S116.4,0,75,0z"/>
	<path style="fill:#159CE4;" d="M75,182c-41.4,0-75,33.6-75,75s33.6,75,75,75s75-33.6,75-75S116.4,182,75,182z"/>
	<path style="fill:#159CE4;" d="M75,362c-41.4,0-75,33.6-75,75s33.6,75,75,75s75-33.6,75-75S116.4,362,75,362z"/>
	<path style="fill:#159CE4;" d="M150,437c0,41.4-33.6,75-75,75V362C116.4,362,150,395.6,150,437z"/>
	<path style="fill:#159CE4;" d="M150,257c0,41.4-33.6,75-75,75V182C116.4,182,150,215.6,150,257z"/>
	<path style="fill:#159CE4;" d="M150,75c0,41.4-33.6,75-75,75V0C116.4,0,150,33.6,150,75z"/>
	<path style="fill:#159CE4;" d="M512,437c0,24.899-20.099,45-45,45H347v-90h120C491.901,392,512,412.099,512,437z"/>
	<path style="fill:#159CE4;" d="M512,257c0,24.899-20.099,45-45,45H347v-90h120C491.901,212,512,232.099,512,257z"/>
	<path style="fill:#159CE4;" d="M467,120H347V30h120c24.901,0,45,20.099,45,45S491.901,120,467,120z"/>
</g>
<g>
</g>
<g>
</g>
<g>
</g>
<g>
</g>
<g>
</g>
<g>
</g>
<g>
</g>
<g>
</g>
<g>
</g>
<g>
</g>
<g>
</g>
<g>
</g>
<g>
</g>
<g>
</g>
<g>
</g>
</svg>
