<svg height='300px' width='300px'  fill="#31c0f1" xmlns="http://www.w3.org/2000/svg" data-name="Layer 1" viewBox="0 0 100 100" x="0px" y="0px"><title>114</title><path d="M38,64.17H62a3,3,0,0,0,3-3V38.83a3,3,0,0,0-3-3H38a3,3,0,0,0-3,3V61.17A3,3,0,0,0,38,64.17Zm3-22.33H59V58.17H41Z"></path><path d="M52.33,45H47.67a3,3,0,0,0,0,6h4.67a3,3,0,0,0,0-6Z"></path><path d="M50.33,33.33a3,3,0,0,0,3-3v-6a12.16,12.16,0,1,0-6,.17v5.8A3,3,0,0,0,50.33,33.33Zm-6.5-20.67A6.17,6.17,0,1,1,50,18.83,6.17,6.17,0,0,1,43.83,12.67Z"></path><path d="M49.67,66.67a3,3,0,0,0-3,3v6a12.16,12.16,0,1,0,6-.17v-5.8A3,3,0,0,0,49.67,66.67Zm6.5,20.67A6.17,6.17,0,1,1,50,81.17,6.17,6.17,0,0,1,56.17,87.33Z"></path><path d="M87.33,37.83a12.18,12.18,0,0,0-11.86,9.5h-5.8a3,3,0,1,0,0,6h6a12.16,12.16,0,1,0,11.69-15.5Zm0,18.33A6.17,6.17,0,1,1,93.5,50,6.17,6.17,0,0,1,87.33,56.17Z"></path><path d="M12.67,62.17a12.18,12.18,0,0,0,11.86-9.5h5.8a3,3,0,0,0,0-6h-6a12.16,12.16,0,1,0-11.69,15.5Zm0-18.33A6.17,6.17,0,1,1,6.5,50,6.17,6.17,0,0,1,12.67,43.83Z"></path><path d="M68.14,35.33a3,3,0,0,0,2.12-.88l4.23-4.23a12.16,12.16,0,1,0-4.36-4.12L66,30.21a3,3,0,0,0,2.12,5.12ZM76,15.24A6.17,6.17,0,1,1,76,24,6.15,6.15,0,0,1,76,15.24Z"></path><path d="M29.74,65.55l-4.22,4.22A12.16,12.16,0,0,0,11,71.8h0a12.17,12.17,0,1,0,18.88,2.1l4.1-4.1a3,3,0,0,0-4.24-4.24ZM24,84.76A6.17,6.17,0,0,1,15.24,76h0A6.17,6.17,0,1,1,24,84.76Z"></path><path d="M69.78,74.49A12.18,12.18,0,0,0,71.8,89h0a12.17,12.17,0,1,0,2.1-18.88L69.79,66a3,3,0,1,0-4.24,4.24Zm15,1.55A6.17,6.17,0,0,1,76,84.76h0A6.17,6.17,0,0,1,84.76,76Z"></path><path d="M19.6,31.76a12.16,12.16,0,0,0,6.5-1.89l4.1,4.1a3,3,0,0,0,4.24-4.24l-4.23-4.23A12.16,12.16,0,1,0,19.6,31.76ZM15.24,15.24a6.17,6.17,0,1,1,0,8.72A6.15,6.15,0,0,1,15.24,15.24Z"></path></svg>