<?xml version="1.0" encoding="iso-8859-1"?>
<!-- Generator: Adobe Illustrator 19.0.0, SVG Export Plug-In . SVG Version: 6.00 Build 0)  -->
<svg version="1.1" id="Capa_1" xmlns="http://www.w3.org/2000/svg" xmlns:xlink="http://www.w3.org/1999/xlink" x="0px" y="0px"
	 viewBox="0 0 512 512" style="enable-background:new 0 0 512 512;" xml:space="preserve">
<g>
	<path style="fill:#B8DBFF;" d="M256,263.5c-1.919,0-3.839-0.732-5.303-2.197L74.981,85.587c-2.929-2.929-2.929-7.678,0-10.606
		c2.929-2.929,7.678-2.929,10.606,0l175.716,175.716c2.929,2.929,2.929,7.678,0,10.606C259.839,262.768,257.919,263.5,256,263.5z"/>
	<path style="fill:#B8DBFF;" d="M256,512c-68.38,0-132.668-26.629-181.02-74.98C26.629,388.668,0,324.38,0,256
		S26.629,123.332,74.98,74.98C123.332,26.629,187.62,0,256,0s132.668,26.629,181.02,74.98C485.371,123.332,512,187.62,512,256
		s-26.629,132.668-74.98,181.02C388.668,485.371,324.38,512,256,512z M256,15c-64.374,0-124.894,25.068-170.413,70.587
		S15,191.626,15,256s25.068,124.894,70.587,170.413S191.626,497,256,497s124.894-25.068,170.413-70.587S497,320.374,497,256
		s-25.068-124.894-70.587-170.413S320.374,15,256,15z"/>
	<path style="fill:#B8DBFF;" d="M80.284,439.216c-1.92,0-3.839-0.732-5.303-2.197c-2.929-2.929-2.929-7.678,0-10.606
		l175.716-175.716c2.929-2.929,7.678-2.929,10.606,0c2.929,2.929,2.929,7.678,0,10.606L85.587,437.019
		C84.123,438.483,82.204,439.216,80.284,439.216z"/>
	<path style="fill:#B8DBFF;" d="M431.716,439.216c-1.919,0-3.839-0.732-5.303-2.197L250.697,261.303
		c-2.929-2.929-2.929-7.678,0-10.606c2.929-2.929,7.678-2.929,10.606,0l175.716,175.716c2.929,2.929,2.929,7.678,0,10.606
		C435.555,438.483,433.635,439.216,431.716,439.216z"/>
	<path style="fill:#B8DBFF;" d="M256,263.5c-1.919,0-3.839-0.732-5.303-2.197c-2.929-2.929-2.929-7.678,0-10.606L426.413,74.981
		c2.929-2.929,7.678-2.929,10.606,0c2.929,2.929,2.929,7.678,0,10.606L261.303,261.303C259.839,262.768,257.919,263.5,256,263.5z"/>
</g>
<circle style="fill:#C58F85;" cx="80.28" cy="80.28" r="36.983"/>
<circle style="fill:#F7B96D;" cx="80.28" cy="431.72" r="36.983"/>
<circle style="fill:#86DBD5;" cx="431.72" cy="431.72" r="36.983"/>
<circle style="fill:#EC7887;" cx="431.72" cy="80.28" r="36.983"/>
<circle style="fill:#609AD6;" cx="256" cy="256" r="144.64"/>
<g>
	<ellipse style="fill:#EC7887;" cx="208.52" cy="229.59" rx="17.519" ry="13.951"/>
	<ellipse style="fill:#EC7887;" cx="303.48" cy="229.59" rx="17.519" ry="13.951"/>
</g>
<g>
	<path style="fill:#495059;" d="M218.73,223.169c-4.142,0-7.5-3.358-7.5-7.5v-6.187c0-4.142,3.358-7.5,7.5-7.5s7.5,3.358,7.5,7.5
		v6.187C226.23,219.811,222.873,223.169,218.73,223.169z"/>
	<path style="fill:#495059;" d="M293.27,223.169c-4.142,0-7.5-3.358-7.5-7.5v-6.187c0-4.142,3.358-7.5,7.5-7.5s7.5,3.358,7.5,7.5
		v6.187C300.77,219.811,297.412,223.169,293.27,223.169z"/>
	<path style="fill:#495059;" d="M256,227.92c-5.934,0-11.576-2.569-15.48-7.049c-2.722-3.123-2.396-7.86,0.726-10.582
		s7.86-2.397,10.582,0.726c1.07,1.228,2.552,1.904,4.172,1.904s3.102-0.676,4.172-1.904c2.722-3.123,7.458-3.448,10.582-0.726
		c3.123,2.721,3.448,7.459,0.726,10.582C267.576,225.351,261.934,227.92,256,227.92z"/>
</g>
<path style="opacity:0.1;enable-background:new    ;" d="M400.447,263.5c0.127-2.484,0.192-4.984,0.192-7.5s-0.065-5.016-0.192-7.5
	h-57.528c-0.818-19.952-4.881-39.488-11.992-57.809h50.068c1.311,0,2.542-0.338,3.614-0.929c-2.507-4.858-5.282-9.553-8.304-14.071
	h-52.024c-1.928-3.859-3.987-7.654-6.2-11.366c-12.325-20.675-28.614-38.523-47.532-52.238c-4.785-0.478-9.639-0.726-14.55-0.726
	s-9.764,0.248-14.55,0.726c-18.918,13.715-35.207,31.563-47.532,52.238c-2.213,3.712-4.272,7.507-6.2,11.366h-52.024
	c-3.022,4.518-5.797,9.213-8.304,14.071c1.072,0.591,2.303,0.929,3.614,0.929h50.068c-7.111,18.321-11.174,37.857-11.992,57.809
	h-57.528c-0.127,2.484-0.192,4.984-0.192,7.5c0,2.516,0.065,5.016,0.192,7.5h57.528c0.818,19.952,4.881,39.488,11.992,57.809
	h-50.068c-1.311,0-2.542,0.338-3.614,0.929c2.507,4.858,5.282,9.553,8.304,14.071h52.024c1.928,3.859,3.987,7.654,6.2,11.366
	c12.325,20.675,28.614,38.523,47.532,52.238c4.785,0.478,9.639,0.726,14.55,0.726s9.764-0.247,14.55-0.726
	c18.918-13.715,35.207-31.563,47.532-52.238c2.213-3.712,4.272-7.507,6.2-11.366h52.024c3.022-4.518,5.797-9.213,8.304-14.071
	c-1.072-0.591-2.303-0.929-3.614-0.929h-50.068c7.111-18.321,11.174-37.857,11.992-57.809H400.447z M256,120.252
	c18.608,12.271,37.477,31.015,51.242,55.439H204.758C218.523,151.266,237.392,132.522,256,120.252z M256,391.749
	c-18.608-12.271-37.477-31.015-51.242-55.439h102.484C293.477,360.734,274.608,379.478,256,391.749z M314.706,321.309H197.294
	c-7.41-17.067-12.284-36.408-13.215-57.809h143.842C326.99,284.901,322.116,304.242,314.706,321.309z M184.079,248.5
	c0.931-21.401,5.805-40.742,13.215-57.809h117.411c7.41,17.067,12.284,36.408,13.216,57.809H184.079z"/>
<path style="opacity:0.1;enable-background:new    ;" d="M359.437,357.085c-154.169,12.656-183.553-169.319-136.771-241.857
	C158.855,130.281,111.361,187.591,111.361,256c0,79.882,64.757,144.639,144.639,144.639
	C296.539,400.639,333.176,383.954,359.437,357.085z"/>
<path style="opacity:0.1;enable-background:new    ;" d="M113.021,97.489c-41.426,13.876-56.44-36.624-39.622-53.538
	C56.265,47.178,43.3,62.213,43.3,80.284c0,20.425,16.558,36.984,36.983,36.984C94.496,117.267,106.828,109.247,113.021,97.489z"/>
<path style="opacity:0.1;enable-background:new    ;" d="M113.021,448.921c-41.426,13.876-56.44-36.624-39.622-53.538
	C56.265,398.61,43.3,413.645,43.3,431.716c0,20.426,16.558,36.983,36.983,36.983C94.496,468.699,106.828,460.679,113.021,448.921z"
	/>
<path style="opacity:0.1;enable-background:new    ;" d="M464.453,448.921c-41.426,13.876-56.44-36.624-39.622-53.538
	c-17.134,3.228-30.098,18.262-30.098,36.333c0,20.426,16.558,36.983,36.983,36.983C445.928,468.699,458.26,460.679,464.453,448.921z
	"/>
<path style="opacity:0.1;enable-background:new    ;" d="M464.453,97.489c-41.426,13.876-56.44-36.624-39.622-53.538
	c-17.134,3.228-30.098,18.262-30.098,36.333c0,20.425,16.558,36.983,36.983,36.983C445.928,117.267,458.26,109.247,464.453,97.489z"
	/>
<g>
</g>
<g>
</g>
<g>
</g>
<g>
</g>
<g>
</g>
<g>
</g>
<g>
</g>
<g>
</g>
<g>
</g>
<g>
</g>
<g>
</g>
<g>
</g>
<g>
</g>
<g>
</g>
<g>
</g>
</svg>
