<svg id="Layer_1" enable-background="new 0 0 511.993 511.993" height="512" viewBox="0 0 511.993 511.993" width="512" xmlns="http://www.w3.org/2000/svg"><g><path d="m189.498 9.537-149.741 43.803c-7.025 2.055-11.542 8.881-10.685 16.151l26.857 228.045c6.148 52.199 34.219 99.636 77.015 130.149l114.345 81.523c2.605 1.858 5.657 2.786 8.708 2.786.331 0 .662-.016.992-.038l20.124-255.499-20.124-256.455c-22.704-.095-45.417 3.079-67.491 9.535z" fill="#00c0f1"/><path d="m472.236 53.34-149.741-43.803c-21.43-6.269-43.464-9.443-65.506-9.535v147.714l14.534 37.5-14.534 37.5v60l12.883 37.5-12.883 37.5v154.239c2.716-.18 5.393-1.093 7.716-2.749l114.345-81.523c25.491-18.174 45.757-42.353 59.279-69.966 9.18-18.746-21.096-22.409-18.61-43.516l38.092-31.485 7.066-60-8.929-37.5 17.762-37.5 9.213-78.226c.855-7.269-3.662-14.095-10.687-16.15z" fill="#00607f"/></g><g fill="#00465f"><path d="m473.708 147.716h-216.719v75h207.886z"/><path d="m456.064 297.535 1.745-14.818h-200.82v75h181.336c9.179-18.747 15.253-39.075 17.739-60.182z"/></g></svg>