<svg id="Layer_1" enable-background="new 0 0 512 512" height="512" viewBox="0 0 512 512" width="512" xmlns="http://www.w3.org/2000/svg"><g><g><path d="m64.83 208.816-21.284 63.143c-1.73 5.133-.559 10.8 3.065 14.826l198.24 220.25c2.845 3.16 6.897 4.965 11.149 4.965l16.394-110.394-16.394-192.791z" fill="#f0e2de"/><path d="m468.455 271.959-21.284-63.144h-191.171v303.185c4.252 0 8.304-1.805 11.149-4.965l198.24-220.25c3.624-4.026 4.796-9.693 3.066-14.826z" fill="#cdbfbb"/></g><g><path d="m87.688 140.999-22.073 65.48c-1.73 5.133-.559 10.8 3.065 14.826l176.17 195.73c2.845 3.16 6.898 4.965 11.15 4.965l14.704-80.733-14.704-200.268z" fill="#fff5f5"/><path d="m446.384 206.479-22.072-65.48h-168.312v281.001c4.252 0 8.305-1.805 11.149-4.965l176.17-195.73c3.624-4.026 4.795-9.693 3.065-14.826z" fill="#f0e2de"/></g><g><path d="m145.99 0c-6.438 0-12.158 4.108-14.214 10.208l-44.09 130.79c-1.73 5.133-.559 10.8 3.065 14.827l66.207 73.558 99.042-.289 16.394-121.621-16.394-107.473z" fill="#ff4949"/><path d="m424.314 140.998-44.09-130.79c-2.056-6.1-7.776-10.208-14.214-10.208h-110.01v229.094l99.564-.291 65.685-72.978c3.624-4.026 4.795-9.694 3.065-14.827z" fill="#e50148"/></g><g><path d="m244.851 131.708-87.893 97.674 87.893 97.652c2.844 3.16 6.897 4.965 11.149 4.965l16.394-97.843-16.394-107.412c-4.252 0-8.304 1.804-11.149 4.964z" fill="#e50148"/><path d="m267.149 131.708c-2.845-3.16-6.897-4.965-11.149-4.965v205.257c4.252 0 8.305-1.805 11.149-4.965l88.415-98.232z" fill="#bf065b"/></g></g></svg>