<?xml version="1.0" encoding="iso-8859-1"?>
<!-- Generator: Adobe Illustrator 19.0.0, SVG Export Plug-In . SVG Version: 6.00 Build 0)  -->
<svg version="1.1" id="Capa_1" xmlns="http://www.w3.org/2000/svg" xmlns:xlink="http://www.w3.org/1999/xlink" x="0px" y="0px"
	 viewBox="0 0 452.254 452.254" style="enable-background:new 0 0 452.254 452.254;" xml:space="preserve">
<path style="fill:#FCD462;" d="M239.57,6.823l18.854,19.431c5.295,5.457,13.363,7.172,20.419,4.34l25.127-10.083
	c9.806-3.935,20.925,1.015,24.562,10.936l9.321,25.42c2.617,7.139,9.29,11.987,16.888,12.27l27.056,1.009
	c10.559,0.394,18.703,9.438,17.991,19.981l-1.824,27.013c-0.512,7.586,3.612,14.729,10.438,18.079l24.306,11.927
	c9.486,4.655,13.247,16.23,8.309,25.571l-12.654,23.936c-3.554,6.722-2.691,14.925,2.182,20.761l17.354,20.782
	c6.773,8.111,5.501,20.214-2.81,26.74l-21.296,16.72c-5.98,4.695-8.529,12.54-6.451,19.854l7.401,26.044
	c2.888,10.164-3.197,20.704-13.443,23.285l-26.255,6.612c-7.373,1.857-12.892,7.987-13.968,15.513l-3.832,26.802
	c-1.495,10.46-11.342,17.614-21.752,15.804l-26.675-4.638c-7.491-1.302-15.026,2.052-19.071,8.491l-14.402,22.926
	c-5.621,8.948-17.525,11.478-26.299,5.59l-22.482-15.087c-6.314-4.237-14.562-4.237-20.875,0l-22.482,15.087
	c-8.774,5.888-20.679,3.357-26.299-5.59l-14.402-22.926c-4.044-6.438-11.58-9.793-19.071-8.491l-26.675,4.638
	c-10.41,1.81-20.256-5.344-21.752-15.804l-3.832-26.802c-1.076-7.527-6.595-13.656-13.968-15.513l-26.255-6.612
	c-10.246-2.581-16.332-13.121-13.443-23.285l7.401-26.044c2.078-7.314-0.47-15.158-6.451-19.854l-21.295-16.72
	c-8.311-6.525-9.583-18.629-2.81-26.74l17.354-20.782c4.873-5.836,5.736-14.039,2.182-20.761l-12.654-23.936
	c-4.938-9.341-1.178-20.916,8.309-25.571l24.306-11.927c6.826-3.349,10.95-10.492,10.438-18.079l-1.824-27.013
	c-0.712-10.542,7.432-19.587,17.991-19.981l27.056-1.009c7.598-0.283,14.271-5.132,16.888-12.27l9.321-25.42
	c3.638-9.921,14.756-14.871,24.562-10.936l25.127,10.083c7.056,2.831,15.124,1.117,20.419-4.34l18.854-19.431
	C220.042-0.76,232.212-0.76,239.57,6.823z"/>
<circle style="fill:#E1E6E9;" cx="226.127" cy="226.127" r="162.341"/>
<polygon style="fill:#E56353;" points="226.127,110.77 254.966,176.176 326.029,168.448 283.806,226.127 326.029,283.806 
	254.966,276.078 226.127,341.484 197.288,276.078 126.225,283.806 168.448,226.127 126.225,168.448 197.288,176.176 "/>
<g>
</g>
<g>
</g>
<g>
</g>
<g>
</g>
<g>
</g>
<g>
</g>
<g>
</g>
<g>
</g>
<g>
</g>
<g>
</g>
<g>
</g>
<g>
</g>
<g>
</g>
<g>
</g>
<g>
</g>
</svg>
