<svg height='300px' width='300px'  fill="#3a7ef2" xmlns="http://www.w3.org/2000/svg" xmlns:xlink="http://www.w3.org/1999/xlink" version="1.1" x="0px" y="0px" viewBox="0 0 64 64" enable-background="new 0 0 64 64" xml:space="preserve"><path d="M55.138,24.291c0.79,0.41,1.091,1.379,0.681,2.16l-4.09,7.799c-0.41,0.781-1.381,1.08-2.16,0.67l-10.16-5.33  c-0.75-0.389-1.32-1.07-1.57-1.879l-1.66-5.311c-0.26-0.84,0.21-1.74,1.051-2l5.31-1.66c0.81-0.25,1.69-0.17,2.44,0.221  L55.138,24.291z"></path><path d="M38.858,15.701l-2.82,0.879c-2.95,0.92-4.6,4.061-3.67,7.02l1.649,5.301c0.11,0.35,0.24,0.68,0.4,1.01  c-0.77,0.531-1.601,0.961-2.47,1.291c-6.19,2.379-13.13-0.721-15.5-6.9c-2.38-6.189,0.72-13.131,6.91-15.5  C29.538,6.42,36.479,9.52,38.858,15.701z"></path><path d="M47.298,47.92c0.01,2.631-1.7,4.961-4.22,5.74c-10.05,3.121-20.81,3.121-30.86,0c-2.51-0.779-4.22-3.109-4.22-5.74  c0-3.43,1.18-6.76,3.33-9.439c2.11-2.631,5.24-4.25,8.62-4.461c4.8,2.641,10.609,2.641,15.41,0c3.37,0.211,6.5,1.83,8.62,4.461  C46.128,41.16,47.298,44.49,47.298,47.92z"></path></svg>