<svg id="Capa_1" enable-background="new 0 0 497.538 497.538" height="512" viewBox="0 0 497.538 497.538" width="512" xmlns="http://www.w3.org/2000/svg"><g><path d="m197.493 457.652 18.033 26.871c5.459 8.134 14.611 13.014 24.407 13.014h17.673c9.796 0 18.948-4.88 24.407-13.014l18.033-26.871v-40.761h-102.553z" fill="#baafb9"/><path d="m165.825 384.406v41.868c0 17.329 14.048 31.378 31.378 31.378h102.133c17.329 0 31.378-14.048 31.378-31.378v-41.868-50.723h-164.889z" fill="#f3f0f3"/><path d="m215.57 426.274v-41.868-50.723h-49.746v50.723 41.868c0 17.329 14.048 31.378 31.378 31.378h49.746c-17.329 0-31.378-14.048-31.378-31.378z" fill="#e5e1e5"/><g id="XMLID_517_"><g><path d="m330.709 398.503v27.77c0 .51-.01 1.01-.04 1.52h-164.8c-.03-.51-.04-1.01-.04-1.52v-27.77h2.44z" fill="#d7d0d6"/></g></g><path d="m165.869 427.793h49.74c-.024-.503-.038-1.009-.038-1.519v-27.771h-47.301-2.44v27.77c-.001.51.009 1.01.039 1.52z" fill="#baafb9"/><path d="m407.639 400.933-31.748-126.993c-.846-3.385-.275-6.97 1.581-9.925l74.096-117.949c5.361-8.534-.773-19.631-10.851-19.631h-107.769c-4.689 0-9.004-2.561-11.25-6.678l-61.679-113.079c-4.857-8.904-17.643-8.904-22.5 0l-61.68 113.079c-2.246 4.117-6.56 6.678-11.25 6.678h-107.768c-10.078 0-16.212 11.097-10.851 19.631l74.096 117.949c1.856 2.955 2.427 6.539 1.581 9.925l-31.748 126.993c-2.7 10.799 8.706 19.668 18.507 14.391l134.288-72.309c3.793-2.042 8.358-2.042 12.151 0l134.288 72.309c9.8 5.277 21.206-3.592 18.506-14.391z" fill="#fef056"/><g><path d="m180.335 297.988c.846-3.385.275-6.97-1.581-9.925l-74.096-117.949c-5.361-8.534.773-19.631 10.851-19.631h107.769c4.689 0 9.004-2.561 11.25-6.678l50.144-91.931-24.653-45.196c-4.857-8.904-17.643-8.904-22.5 0l-61.68 113.079c-2.246 4.117-6.56 6.678-11.25 6.678h-107.768c-10.078 0-16.212 11.097-10.851 19.631l74.096 117.949c1.856 2.955 2.427 6.539 1.581 9.925l-31.748 126.993c-2.7 10.799 8.706 19.668 18.507 14.391l49.22-26.503z" fill="#fee903"/></g><path d="m288.573 361.177v-105.492l9.826-.154c13.266-.208 24.058-11.172 24.058-24.439v-6.798c0-13.478-10.965-24.442-24.441-24.442-13.478 0-24.442 10.964-24.442 24.442v7.178l-.371-.334c-2.794-2.511-6.399-3.775-10.146-3.562-3.749.214-7.185 1.881-9.673 4.693l-5.114 5.78-5.114-5.78c-2.488-2.813-5.924-4.479-9.673-4.693-3.758-.216-7.353 1.051-10.146 3.562l-.371.334v-7.178c0-13.478-10.965-24.442-24.442-24.442s-24.441 10.964-24.441 24.442v6.798c0 13.267 10.792 24.23 24.058 24.439l9.826.154v106.03l15-8.077v-101.994l9.637-8.666 5.197 5.874c2.652 2.996 6.468 4.715 10.47 4.715s7.817-1.719 10.471-4.715l5.196-5.873 9.637 8.666v101.455zm0-136.883c0-5.207 4.235-9.442 9.442-9.442 5.206 0 9.441 4.235 9.441 9.442v6.798c0 5.125-4.169 9.36-9.293 9.441l-9.591.15v-16.389zm-80.608 16.389-9.59-.15c-5.125-.081-9.294-4.316-9.294-9.441v-6.798c0-5.207 4.235-9.442 9.441-9.442 5.207 0 9.442 4.235 9.442 9.442v16.389z" fill="#fef6ad"/><g><g><path d="m348.828 56.196c-.986 0-1.989-.196-2.953-.609-3.807-1.633-5.568-6.043-3.936-9.85l11.799-27.5c1.633-3.807 6.042-5.569 9.85-3.936 3.807 1.633 5.568 6.043 3.936 9.85l-11.799 27.5c-1.221 2.843-3.988 4.545-6.897 4.545z" fill="#fef6ad"/></g><g><path d="m379.623 81.73c-2.292 0-4.555-1.047-6.026-3.028-2.47-3.325-1.777-8.023 1.548-10.493l22.916-17.023c3.324-2.469 8.023-1.777 10.493 1.548s1.777 8.023-1.548 10.493l-22.916 17.023c-1.343.998-2.912 1.48-4.467 1.48z" fill="#fef6ad"/></g><g><path d="m148.71 56.196c-2.909 0-5.677-1.702-6.896-4.545l-11.799-27.5c-1.633-3.806.129-8.216 3.936-9.85s8.216.129 9.85 3.936l11.799 27.5c1.633 3.806-.129 8.216-3.936 9.85-.964.414-1.967.609-2.954.609z" fill="#fef6ad"/></g><g><path d="m117.914 81.73c-1.555 0-3.123-.481-4.467-1.48l-22.915-17.024c-3.325-2.47-4.018-7.168-1.548-10.493s7.168-4.018 10.493-1.548l22.916 17.023c3.325 2.47 4.018 7.168 1.548 10.493-1.472 1.982-3.735 3.029-6.027 3.029z" fill="#fef6ad"/></g><g><path d="m462.806 288.86h-23.606c-4.143 0-7.5-3.358-7.5-7.5s3.357-7.5 7.5-7.5h23.606c4.143 0 7.5 3.358 7.5 7.5s-3.357 7.5-7.5 7.5z" fill="#fef6ad"/></g><g><path d="m455.545 346.591c-1.392 0-2.798-.386-4.055-1.196l-22.9-14.75c-3.481-2.243-4.486-6.884-2.244-10.366 2.243-3.483 6.886-4.487 10.367-2.244l22.9 14.75c3.481 2.243 4.486 6.884 2.244 10.366-1.433 2.227-3.848 3.44-6.312 3.44z" fill="#fef6ad"/></g><g><path d="m58.338 288.86h-23.606c-4.143 0-7.5-3.358-7.5-7.5s3.357-7.5 7.5-7.5h23.606c4.143 0 7.5 3.358 7.5 7.5s-3.357 7.5-7.5 7.5z" fill="#fef6ad"/></g><g><path d="m41.993 346.591c-2.465 0-4.878-1.214-6.313-3.44-2.242-3.482-1.237-8.124 2.244-10.366l22.9-14.75c3.485-2.242 8.123-1.237 10.367 2.244 2.242 3.482 1.237 8.124-2.244 10.366l-22.9 14.75c-1.257.81-2.664 1.196-4.054 1.196z" fill="#fef6ad"/></g></g></g></svg>