<svg height='300px' width='300px'  fill="#5dbf6f" xmlns="http://www.w3.org/2000/svg" xmlns:xlink="http://www.w3.org/1999/xlink" viewBox="0 0 48 48" version="1.1" x="0px" y="0px"><g stroke="none" stroke-width="1" fill="none" fill-rule="evenodd"><g fill="#5dbf6f"><g transform="translate(4.000000, 5.000000)"><g><g><g><g><g transform="translate(20.188525, 19.500000) rotate(90.000000) translate(-20.188525, -19.500000) translate(0.688525, 0.000000)"><path d="M35.1,6.68852459 C35.1,7.79252459 34.202,8.68852459 33.1,8.68852459 C31.998,8.68852459 31.1,7.79252459 31.1,6.68852459 C31.1,5.58452459 31.998,4.68852459 33.1,4.68852459 C34.202,4.68852459 35.1,5.58452459 35.1,6.68852459 Z M39,6.68852459 C39,3.38052459 36.3753,0.68852459 33.15,0.68852459 C30.6111,0.68852459 28.46805,2.36452459 27.66075,4.68852459 L2,4.68852459 L2,4.68852459 C0.8954305,4.68852459 -3.16038672e-15,5.58395509 -3.02511597e-15,6.68852459 L-3.02511597e-15,6.68852459 L-3.02511597e-15,6.68852459 C-2.88984522e-15,7.79309409 0.8954305,8.68852459 2,8.68852459 L27.66075,8.68852459 C28.46805,11.0125246 30.6111,12.6885246 33.15,12.6885246 C36.3753,12.6885246 39,9.99652459 39,6.68852459 Z" transform="translate(19.500000, 6.688525) scale(-1, 1) translate(-19.500000, -6.688525) "></path><path d="M17,19.6885246 C17,18.5845246 17.898,17.6885246 19,17.6885246 C20.102,17.6885246 21,18.5845246 21,19.6885246 C21,20.7925246 20.102,21.6885246 19,21.6885246 C17.898,21.6885246 17,20.7925246 17,19.6885246 Z M-8.8817842e-16,19.6885246 L-8.8817842e-16,19.6885246 L-8.8817842e-16,19.6885246 C-7.52907669e-16,20.7930941 0.8954305,21.6885246 2,21.6885246 L13.36075,21.6885246 C14.16805,24.0125246 16.3111,25.6885246 18.85,25.6885246 C21.3889,25.6885246 23.53195,24.0125246 24.33925,21.6885246 L37,21.6885246 L37,21.6885246 C38.1045695,21.6885246 39,20.7930941 39,19.6885246 L39,19.6885246 L39,19.6885246 C39,18.5839551 38.1045695,17.6885246 37,17.6885246 L24.33925,17.6885246 C23.53195,15.3645246 21.3889,13.6885246 18.85,13.6885246 C16.3111,13.6885246 14.16805,15.3645246 13.36075,17.6885246 L2,17.6885246 L2,17.6885246 C0.8954305,17.6885246 -1.02344917e-15,18.5839551 -8.8817842e-16,19.6885246 Z"></path><path d="M31,32.6885246 C31,31.5845246 31.898,30.6885246 33,30.6885246 C34.102,30.6885246 35,31.5845246 35,32.6885246 C35,33.7925246 34.102,34.6885246 33,34.6885246 C31.898,34.6885246 31,33.7925246 31,32.6885246 Z M27.66075,30.6885246 L2,30.6885246 L2,30.6885246 C0.8954305,30.6885246 9.74952274e-16,31.5839551 1.11022302e-15,32.6885246 L1.11022302e-15,32.6885246 L1.11022302e-15,32.6885246 C1.73602117e-15,33.7930941 0.8954305,34.6885246 2,34.6885246 L27.66075,34.6885246 C28.46805,37.0125246 30.6111,38.6885246 33.15,38.6885246 C36.3753,38.6885246 39,35.9965246 39,32.6885246 C39,29.3805246 36.3753,26.6885246 33.15,26.6885246 C30.6111,26.6885246 28.46805,28.3645246 27.66075,30.6885246 Z"></path></g></g></g></g></g></g></g></g></svg>